<svg xmlns="http://www.w3.org/2000/svg" viewBox="0 0 256 256">
  <rect width="256" height="256" fill="#2563eb"/>
  <rect x="60" y="40" width="100" height="140" rx="8" fill="#ffffff"/>
  <rect x="60" y="40" width="100" height="35" rx="8" fill="#1e40af"/>
  <rect x="110" y="48" width="20" height="20" rx="4" fill="#60a5fa"/>
  <path d="M80 95 h60 M80 115 h60 M80 135 h60 M80 155 h60" stroke="#cbd5e1" stroke-width="4" stroke-linecap="round"/>
  <circle cx="90" cy="95" r="4" fill="#10b981"/>
  <circle cx="90" cy="115" r="4" fill="#10b981"/>
  <circle cx="90" cy="135" r="4" fill="#10b981"/>
  <path d="M70 180 h100 l20 25 v20 h-10 v-8 a8 8 0 0 0 -16 0 v8 h-68 v-8 a8 8 0 0 0 -16 0 v8 h-10 v-20 z" fill="#10b981"/>
  <rect x="85" y="195" width="30" height="15" rx="2" fill="#064e3b"/>
  <rect x="125" y="195" width="30" height="15" rx="2" fill="#064e3b"/>
  <circle cx="90" cy="225" r="8" fill="#1f2937"/>
  <circle cx="150" cy="225" r="8" fill="#1f2937"/>
</svg>